<svg width="83" height="67" viewBox="0 0 83 67" fill="none" xmlns="http://www.w3.org/2000/svg">
<path d="M78.4982 17.9519C78.5114 17.759 78.5181 17.5668 78.5182 17.3754C78.5175 15.339 77.7759 13.3793 76.4444 11.8955C75.1129 10.4117 73.2916 9.51522 71.3512 9.38863C70.4083 6.78725 68.7733 4.5235 66.6399 2.8656C64.5064 1.20769 61.964 0.225112 59.3139 0.0342766C56.6637 -0.156559 54.0169 0.452347 51.6869 1.78885C49.357 3.12535 47.4416 5.13344 46.1678 7.57519C45.7587 7.52585 45.3473 7.50067 44.9355 7.49977C43.2879 7.49414 41.6596 7.87178 40.1682 8.60544C38.6768 9.33909 37.3596 10.4105 36.3115 11.7422C36.1413 11.9587 36.0356 12.2228 36.0075 12.5017C35.9795 12.7807 36.0302 13.0621 36.1535 13.311C36.2768 13.56 36.4673 13.7655 36.7011 13.902C36.935 14.0385 37.2021 14.1001 37.469 14.079C37.6132 14.0678 37.7673 14.0685 37.9127 14.0693C41.3262 14.0767 44.6658 15.1117 47.5337 17.0511C50.4016 18.9904 52.6769 21.7523 54.0886 25.0078C54.2169 25.304 54.4376 25.5456 54.7144 25.6928C54.9913 25.84 55.3077 25.8841 55.6116 25.8177C58.0032 25.2978 60.484 25.4578 62.7966 26.281C65.1092 27.1041 67.1694 28.5605 68.7635 30.4991C68.8917 30.6562 69.0509 30.7824 69.2302 30.8689C69.4095 30.9553 69.6045 31.0001 69.8018 31H80.6638C80.9023 31 81.1367 30.9346 81.3437 30.8103C81.5506 30.686 81.7229 30.5071 81.8433 30.2914C82.6001 28.9342 82.9993 27.3909 83 25.8192C82.9933 24.2052 82.5717 22.6229 81.7796 21.2386C80.9874 19.8542 79.8539 18.7189 78.4982 17.9519Z" fill="#7CC9F2"/>
<path d="M74.6683 38.4755C74.4041 34.2855 72.5437 30.353 69.4658 27.4781C66.3879 24.6032 62.3236 23.0019 58.1 23C57.3229 23 56.5468 23.0534 55.7771 23.1598C54.0259 19.8026 51.382 16.9871 48.1331 15.0194C44.8841 13.0518 41.1545 12.0075 37.35 12C37.1366 12 36.9062 12.0014 36.759 12.0138C32.5683 12.1189 28.509 13.4896 25.1209 15.9434C21.7328 18.3972 19.1763 21.818 17.7915 25.751C14.8911 25.8045 12.1275 26.9864 10.0942 29.043C8.06091 31.0995 6.92007 33.8666 6.91669 36.75C6.91692 37.1709 6.94172 37.5914 6.99098 38.0095C4.90197 39.034 3.14135 40.6166 1.90655 42.5799C0.671741 44.5432 0.0115611 46.8096 3.01254e-05 49.125C-0.00482534 51.3036 0.577339 53.4438 1.68604 55.3232C1.80815 55.5294 1.98232 55.7003 2.19129 55.819C2.40027 55.9377 2.63681 56.0001 2.8775 56H18.4814C18.8109 56 19.1296 55.8831 19.3801 55.6703C19.6306 55.4575 19.7965 55.1628 19.8478 54.8392C20.247 52.3339 21.5325 50.0525 23.473 48.4051C25.4135 46.7578 27.8816 45.8528 30.4335 45.8528C32.9854 45.8528 35.4535 46.7578 37.394 48.4051C39.3345 50.0525 40.6199 52.3339 41.0192 54.8392C41.0705 55.1628 41.2364 55.4575 41.4869 55.6703C41.7374 55.8831 42.0561 56 42.3856 56H79.8739C80.0964 56.0001 80.3157 55.9468 80.513 55.8446C80.7104 55.7425 80.88 55.5944 81.0074 55.4132C82.3075 53.5712 83.0034 51.375 83 49.125C82.9908 46.6842 82.1682 44.3152 80.6607 42.3884C79.1533 40.4616 77.046 39.0856 74.6683 38.4755Z" fill="#9CD5F2"/>
<path d="M44.807 55.52C44.7815 55.049 44.7319 54.5797 44.6581 54.1137C44.1622 51.0152 42.5642 48.1934 40.1518 46.1561C37.7393 44.1187 34.6708 42.9996 31.4982 43C28.3256 43.0004 25.2574 44.1203 22.8455 46.1583C20.4336 48.1963 18.8363 51.0185 18.3412 54.1171C18.268 54.582 18.2185 55.0502 18.193 55.52C16.0865 56.2723 14.2658 57.6484 12.9786 59.4609C11.6915 61.2733 11.0006 63.434 11 65.6486C11 66.007 11.144 66.3508 11.4003 66.6042C11.6566 66.8576 12.0042 67 12.3667 67H50.6333C50.9958 67 51.3434 66.8576 51.5997 66.6042C51.856 66.3508 52 66.007 52 65.6486C51.9994 63.434 51.3085 61.2733 50.0214 59.4609C48.7342 57.6484 46.9135 56.2723 44.807 55.52Z" fill="#B2EBF2"/>
</svg>
